<svg id="Capa_1" data-name="Capa 1" xmlns="http://www.w3.org/2000/svg" viewBox="0 0 752.88 111.28"><defs><style>.cls-1{fill:#009845;}.cls-2{fill:#f5333f;}</style></defs><path class="cls-1" d="M770.16,87.58,767,86.9c-8.62-1.82-13-2.74-12.25-6.88.83-4.88,8-4.76,10.38-4.72A27.92,27.92,0,0,1,775,77.64c13.23,5.37,19.14-8,19.14-8-5.94-6.36-15.11-9.37-26.66-9.56-9-.15-30.44,1.56-33.66,20.58-1.89,11.09,4.09,18,18.79,21.63,2.7.68,5,1.21,7.07,1.67,7.55,1.73,11,2.51,10.39,6.08-.7,4.19-5.47,5.91-12.57,5.79s-20.32,1.5-28.43-13.17c0,0-12.3,19.49,4,25.45,5.53,2,10.69,2.9,20.29,2.9,21.26,0,36.31-7.48,38.81-22.22,2.4-14.15-11.43-18.87-22.06-21.2" transform="translate(-41.28 -41.22)"/><path class="cls-1" d="M701.83,105.33a12.41,12.41,0,0,1-5.65,8.55,21,21,0,0,1-12.07,3.32c-3.25,0-5.81-.73-7.6-2.15a5.88,5.88,0,0,1-2-5.94l0-.26a9.38,9.38,0,0,1,4.74-6.84c2.72-1.61,6.31-2.42,10.65-2.42a32.13,32.13,0,0,1,6.95.71,29.48,29.48,0,0,1,4.86,1.51l.6.24Zm17.93-37.69a21.22,21.22,0,0,0-9-5.77,43.18,43.18,0,0,0-14.15-2,71.23,71.23,0,0,0-15.82,1.54A92.81,92.81,0,0,0,671,64.22l-.22.33a17.61,17.61,0,0,0-2.12,17.19l1.86-.79a80,80,0,0,1,9.88-2.77,51.94,51.94,0,0,1,10.43-1c5,0,8.57,1,10.74,3.11S704.43,85,704,88.62L703.83,90l-1.29-.4a56.47,56.47,0,0,0-6-1.5,56,56,0,0,0-21.48.58,32.91,32.91,0,0,0-9.85,4.09,24.45,24.45,0,0,0-7.17,6.9,24.2,24.2,0,0,0-3.77,9.9l0,.25a19.08,19.08,0,0,0,.5,9.18,15.72,15.72,0,0,0,4.28,6.72,19.1,19.1,0,0,0,7.28,4.09,31.41,31.41,0,0,0,9.43,1.36,33.76,33.76,0,0,0,13.22-2.4,28.52,28.52,0,0,0,8.6-5.43l2-1.85-1.35,8.4h9.54l1-.12c7.7,0,9.28-3.7,9.8-6.93l5.41-33.1a38.44,38.44,0,0,0,.14-12.59,19.14,19.14,0,0,0-4.43-9.55" transform="translate(-41.28 -41.22)"/><path class="cls-1" d="M626.25,43.83c-.56-1.09-1.27-1.77-1.88-1.77-.9,0-2.32,1.31-2.75,1.86L597.05,77.48,585.74,44.27s-.31-2.09-2-2.09c-.76,0-2.14,1.91-2.5,2.33-28.83,33.87-51.44,70.2-69.6,107.85a95.56,95.56,0,0,0,9.94,0c8.09-.74,14.91-4.57,18.42-10.46,10.41-17.76,23.71-40.47,37.23-58l4.83,14,8.89,22,15.3-20.55L619.13,82l.31.75,19.77,47.06s12.45-5.95,12.35-25Z" transform="translate(-41.28 -41.22)"/><path class="cls-2" d="M501.81,104.6a12.39,12.39,0,0,1-5.65,8.56,21,21,0,0,1-12.07,3.32c-3.26,0-5.81-.73-7.59-2.15a5.88,5.88,0,0,1-2-5.94l.05-.26a9.3,9.3,0,0,1,4.73-6.84c2.72-1.61,6.31-2.42,10.65-2.42a32.13,32.13,0,0,1,6.95.71,30.15,30.15,0,0,1,4.86,1.5l.61.25Zm17.94-37.68a21.33,21.33,0,0,0-9-5.78,43.18,43.18,0,0,0-14.15-2,71,71,0,0,0-15.81,1.55,95.57,95.57,0,0,0-9.76,2.8l-.21.33A17.62,17.62,0,0,0,468.69,81l1.85-.8a80.29,80.29,0,0,1,9.88-2.76,51.94,51.94,0,0,1,10.43-.95c5,0,8.57,1,10.74,3.11s2.82,4.65,2.39,8.28l-.17,1.42-1.29-.4a54.53,54.53,0,0,0-5.95-1.5,55.46,55.46,0,0,0-21.48.58,32.61,32.61,0,0,0-9.86,4.09,23.55,23.55,0,0,0-10.94,16.8l0,.25a19.23,19.23,0,0,0,.49,9.18A15.89,15.89,0,0,0,459,125a19,19,0,0,0,7.28,4.1,31.41,31.41,0,0,0,9.43,1.36,33.9,33.9,0,0,0,13.22-2.4,28.6,28.6,0,0,0,8.6-5.43l2.05-1.85-1.35,8.39h9.53l1-.11c7.7,0,9.28-3.71,9.8-6.93L524,89.06a37.9,37.9,0,0,0,.14-12.59,19.13,19.13,0,0,0-4.42-9.55" transform="translate(-41.28 -41.22)"/><path class="cls-2" d="M293.94,94.68a21.5,21.5,0,0,1-2.44,7,23,23,0,0,1-4.57,5.8,21.08,21.08,0,0,1-6.29,4,22,22,0,0,1-7.6,1.46,19,19,0,0,1-7.12-1.51,18.29,18.29,0,0,1-5.06-4.05,15,15,0,0,1-2.73-5.85,17.85,17.85,0,0,1-.18-7l0-.19a22.06,22.06,0,0,1,6.95-12.82,22.51,22.51,0,0,1,6.29-4,19.62,19.62,0,0,1,7.56-1.46,16.13,16.13,0,0,1,7.12,1.51,14.41,14.41,0,0,1,7.89,9.9,18.05,18.05,0,0,1,.18,7Zm19.88-14.33A28.76,28.76,0,0,0,307.64,69a30.67,30.67,0,0,0-10.91-7.67,37.69,37.69,0,0,0-14.87-2.82,44.63,44.63,0,0,0-15.77,2.82A47.89,47.89,0,0,0,252.59,69a44.17,44.17,0,0,0-10,11.47,39,39,0,0,0-5.16,14l0,.2a32.09,32.09,0,0,0,.67,13.94A28.79,28.79,0,0,0,244.27,120a30.69,30.69,0,0,0,10.92,7.67,37.65,37.65,0,0,0,14.87,2.82,44.67,44.67,0,0,0,15.77-2.82A47.94,47.94,0,0,0,299.32,120a44.58,44.58,0,0,0,10-11.47,39,39,0,0,0,5.16-14l0-.2a32.25,32.25,0,0,0-.67-13.94" transform="translate(-41.28 -41.22)"/><path class="cls-2" d="M364.49,84.46a9.06,9.06,0,0,1-3.83,6.14,14.16,14.16,0,0,1-8.36,2.27H339l2.74-17h13.2c3.37,0,5.95.7,7.66,2.07s2.37,3.52,1.92,6.35Zm.72,20.31L367,104a35.07,35.07,0,0,0,11.21-7.48,24.84,24.84,0,0,0,6.1-13.22l0-.19c1.09-6.74-.15-12.15-3.69-16a19.47,19.47,0,0,0-8.41-5.55,40.23,40.23,0,0,0-13.68-2H324.81L313.65,128.7h10c8.21,0,9.86-3.7,10.39-5.14L338.66,95l7.28,13.34h0c.22.36,5.26,8.93,6.92,12.12,1.4,2.69,4.33,8.29,14.36,8.3h12.39c-5.37-7.46-13.2-21.7-13.57-22.39Z" transform="translate(-41.28 -41.22)"/><path class="cls-2" d="M437,84.46a9.08,9.08,0,0,1-3.82,6.14,14.2,14.2,0,0,1-8.37,2.27H411.5l2.75-17h13.19c3.37,0,5.95.7,7.66,2.07s2.38,3.52,1.93,6.35Zm.73,20.31,1.83-.81a35.18,35.18,0,0,0,11.21-7.48,25,25,0,0,0,6.1-13.22l0-.19c1.08-6.74-.16-12.15-3.69-16a19.5,19.5,0,0,0-8.42-5.55,40.23,40.23,0,0,0-13.68-2H397.32L386.16,128.7h10c8.21,0,9.85-3.7,10.39-5.14L411.17,95l7.27,13.34h0c.22.36,5.26,8.93,6.92,12.12,1.4,2.69,4.33,8.29,14.36,8.3h12.39c-5.38-7.46-13.2-21.7-13.58-22.39Z" transform="translate(-41.28 -41.22)"/><path class="cls-2" d="M229.12,59.51l-9.92,0-4.2,26H189.12l3-18.61c.36-2.21,1.2-7.4-8.58-7.4l-9.79,0-10,61.8c-.36,2.22-1.2,7.41,8.59,7.41h9.78l4.26-26.43H212.3l-.12,1.59-2.81,17.43c-.36,2.22-1.19,7.41,8.59,7.41h9.65l10.26-63.63c0-1.51-.19-5.56-8.75-5.56" transform="translate(-41.28 -41.22)"/><path class="cls-2" d="M153.26,104q-10.15-30.68-23.16-60.9c-.59-1.11-1.38-1.81-2.09-1.84-1.06,0-2.8,1.18-3.34,1.69A589,589,0,0,0,41.28,152c3.59-.4,6.34.33,9.95,0,8.17-.74,15.4-4.57,19.54-10.45,14.3-20.6,30.72-45.19,50.59-64.82-.29-1.55,9.34,25.67,12.74,35.11l.34.76c2.13,6,.68,8.55,2.65,14.6,5.47.39,10.94,1.33,16.4,1.89,2.63,0,4-.5,4.68-1.21.84-.88,1.48-3.27-.53-9.67-.79-2.58-3.29-10.84-4.38-14.28" transform="translate(-41.28 -41.22)"/><path class="cls-2" d="M113.35,129.13h40.14l-19-17.25H99.87s5.67,17.25,13.48,17.25" transform="translate(-41.28 -41.22)"/></svg>