<svg version="1.1" id="Layer_1" xmlns="http://www.w3.org/2000/svg" xmlns:xlink="http://www.w3.org/1999/xlink" x="0px" y="0px"
	 width="100%" viewBox="0 0 838 214" enable-background="new 0 0 838 214" xml:space="preserve">
<path fill="#C70911" opacity="1.000000" stroke="none" 
	d="
M649.000000,215.000000 
	C432.717926,215.000000 216.935837,215.000000 1.076879,215.000000 
	C1.076879,143.734924 1.076879,72.469757 1.076879,1.102288 
	C280.333313,1.102288 559.666626,1.102288 838.977295,1.102288 
	C838.977295,72.397545 838.977295,143.698776 838.977295,215.000000 
	C775.803040,215.000000 712.651489,215.000000 649.000000,215.000000 
M381.500000,2.000643 
	C257.347198,2.000652 133.194412,2.000245 9.041626,2.001755 
	C2.007965,2.001840 2.001801,2.009152 2.001625,9.140096 
	C2.000000,75.132759 1.999757,141.125427 2.002035,207.118088 
	C2.002272,213.987823 2.011035,213.997879 8.799863,213.997925 
	C282.936066,213.999619 557.072266,213.999603 831.208435,213.997894 
	C837.989014,213.997849 837.998291,213.987686 837.998535,207.109802 
	C838.000977,141.283783 838.000427,75.457771 837.999512,9.631755 
	C837.999390,2.004600 837.996094,2.001187 830.450195,2.001153 
	C681.133484,2.000475 531.816711,2.000647 381.500000,2.000643 
z"/>
<path fill="#CC2229" opacity="1.000000" stroke="none" 
	d="
M382.000000,2.000644 
	C531.816711,2.000647 681.133484,2.000475 830.450195,2.001153 
	C837.996094,2.001187 837.999390,2.004600 837.999512,9.631755 
	C838.000427,75.457771 838.000977,141.283783 837.998535,207.109802 
	C837.998291,213.987686 837.989014,213.997849 831.208435,213.997894 
	C557.072266,213.999603 282.936066,213.999619 8.799863,213.997925 
	C2.011035,213.997879 2.002272,213.987823 2.002035,207.118088 
	C1.999757,141.125427 2.000000,75.132759 2.001625,9.140096 
	C2.001801,2.009152 2.007965,2.001840 9.041626,2.001755 
	C133.194412,2.000245 257.347198,2.000652 382.000000,2.000644 
M695.371155,164.740097 
	C695.928955,163.880600 696.486755,163.021088 697.294617,161.628510 
	C697.803711,161.062469 698.312805,160.496429 699.513733,159.799210 
	C699.987183,158.831696 700.460693,157.864166 700.968567,156.972122 
	C700.968567,156.972122 700.893250,156.937378 701.581604,156.810669 
	C705.244934,152.927261 707.504517,148.500198 706.909729,142.308960 
	C706.987183,141.870850 707.064575,141.432724 707.784363,140.773895 
	C707.851624,139.181046 707.918945,137.588196 707.948364,135.062698 
	C709.462952,120.942673 704.815369,108.807152 695.350647,98.627312 
	C684.630920,87.097664 671.374939,82.540627 655.857788,86.629532 
	C650.163696,88.129974 644.713806,90.557091 638.732239,92.712967 
	C638.327026,91.072449 637.849548,89.139534 637.326355,87.021439 
	C627.139221,87.021439 617.018616,86.995865 606.898621,87.066177 
	C606.014038,87.072319 605.133728,87.708298 603.687012,88.496475 
	C603.458008,89.769028 603.030518,91.041367 603.029175,92.314171 
	C602.992676,126.012611 602.983826,159.711136 603.053101,193.409485 
	C603.056213,194.923828 603.834290,196.436569 604.914612,198.631180 
	C614.980042,198.737289 625.045471,198.868896 635.111145,198.904846 
	C635.989136,198.907990 636.869324,198.282028 638.312866,197.503418 
	C638.542053,190.920074 638.664856,184.330276 639.064575,177.757309 
	C639.186096,175.758316 640.070801,173.805725 641.277832,171.943390 
	C652.844299,178.149612 665.203979,179.098343 677.525635,175.716583 
	C682.800598,174.268784 687.306824,170.019852 692.849060,166.966141 
	C693.481812,166.207031 694.114563,165.447906 694.792358,164.791382 
	C694.792358,164.791382 694.689697,164.746658 695.371155,164.740097 
M353.582520,90.137032 
	C353.388184,90.757828 353.193848,91.378624 353.100769,92.916115 
	C353.067017,96.610977 353.033264,100.305840 352.519318,104.568504 
	C352.915649,106.732742 353.311981,108.896973 354.483215,111.424019 
	C355.313965,111.260963 356.144745,111.097916 357.476990,111.360336 
	C362.317474,109.693230 367.157959,108.026115 372.804504,106.046295 
	C378.775818,104.671700 384.862366,104.372757 390.381287,107.113663 
	C393.342590,108.584373 395.516418,111.640724 397.600281,114.369408 
	C397.097076,115.437836 396.593903,116.506256 395.642090,117.896851 
	C390.756836,117.867729 385.871613,117.838600 380.862091,117.310921 
	C380.245941,117.477104 379.629761,117.643295 378.149750,117.971916 
	C372.625366,118.973839 366.938507,119.446815 361.609100,121.083565 
	C349.023254,124.948875 342.281219,134.182495 342.342560,146.421249 
	C342.393616,156.606995 352.622894,171.177338 362.641052,173.408722 
	C371.656769,175.416840 381.056458,176.904388 389.692963,170.908890 
	C392.889313,168.689972 396.748566,167.425964 400.737671,165.520004 
	C401.207489,168.297287 401.586365,170.536804 401.951752,172.696686 
	C411.203613,172.696686 420.432281,172.696686 429.856110,172.696686 
	C429.856110,167.276901 429.856110,162.163528 430.334625,156.590469 
	C430.140350,155.077148 429.946075,153.563828 429.325165,151.314987 
	C429.285736,150.201630 429.246307,149.088287 429.806732,147.771759 
	C429.606750,146.522888 429.406799,145.274033 429.029724,143.099411 
	C428.971863,136.416473 428.914001,129.733551 429.378021,122.502113 
	C429.169525,120.634232 428.960999,118.766350 428.404419,116.464600 
	C428.342163,116.109604 428.279907,115.754616 428.881439,114.933784 
	C428.656586,113.297577 428.431732,111.661369 428.003296,109.210716 
	C427.303986,106.407623 427.381744,103.009972 425.770721,100.904449 
	C418.834045,91.838478 409.605469,85.930771 398.194733,84.395218 
	C386.429260,82.811935 374.632416,83.134369 362.534912,85.621140 
	C359.717987,87.125725 356.901062,88.630302 354.055389,90.055565 
	C354.055389,90.055565 354.134277,90.085495 353.582520,90.137032 
M799.714050,168.950562 
	C800.449768,168.233597 801.185486,167.516632 802.240723,166.223557 
	C810.998108,159.745163 816.229431,150.694504 817.679565,140.332764 
	C818.765137,132.576477 818.567139,123.996376 816.292114,116.597519 
	C814.076660,109.392792 809.556152,102.126640 804.127808,96.870216 
	C796.939026,89.909271 787.311340,86.305328 776.618164,84.960953 
	C770.954834,84.692001 765.292725,84.376579 759.626221,84.231171 
	C759.101318,84.217697 758.548767,85.284668 757.355103,86.034813 
	C756.904053,86.024765 756.453003,86.014709 755.675354,85.646370 
	C755.121826,85.970726 754.568237,86.295074 753.198547,86.949173 
	C747.839600,86.976486 743.377258,89.115219 738.777771,91.849861 
	C722.345703,101.619629 716.255249,116.429634 717.349182,134.655029 
	C718.484558,153.569382 728.056702,166.502731 746.091675,172.976868 
	C756.822998,176.829163 767.874512,176.663391 779.548828,176.465698 
	C786.852966,176.117081 793.776001,174.774338 799.000000,168.998779 
	C799.000000,168.998779 799.011658,169.005676 799.714050,168.950562 
M253.680725,45.190712 
	C252.157333,44.789635 250.638779,44.064835 249.109726,44.041897 
	C241.284943,43.924538 233.451782,44.166897 225.633102,43.919201 
	C221.175659,43.777992 219.914185,45.614403 219.925446,49.837986 
	C220.030670,89.303467 219.968170,128.769394 220.057159,168.234955 
	C220.060806,169.849060 221.085983,171.460876 222.619431,173.223648 
	C232.926971,173.223648 243.234497,173.223648 254.028198,173.223648 
	C254.028198,130.388504 254.028198,88.140167 253.680725,45.190712 
M321.550537,174.441818 
	C326.033844,172.975052 330.517120,171.508286 335.605255,169.434204 
	C335.464417,162.644775 335.393311,155.852844 335.150085,149.067093 
	C335.045776,146.157150 333.514679,145.601242 330.799316,146.617386 
	C327.205963,147.962082 323.525543,149.296906 319.763977,149.918808 
	C313.680023,150.924698 308.257690,148.613739 303.026855,145.638779 
	C290.976105,138.785110 291.489746,122.439339 299.596039,115.076981 
	C304.747650,110.398140 312.467712,108.013924 320.134766,109.612175 
	C324.401611,110.501640 328.518677,112.109764 333.216522,113.551529 
	C334.173279,105.454269 335.063812,97.917435 336.006409,89.940163 
	C332.430420,88.800781 329.012848,87.634453 325.550262,86.622353 
	C312.331268,82.758530 299.554413,81.953232 286.448517,88.363899 
	C267.771667,97.499596 254.570984,116.826759 263.132324,144.567612 
	C266.937866,156.898468 276.092194,165.661072 287.518219,169.932083 
	C297.248962,173.569443 307.852020,177.938522 319.003754,174.027512 
	C319.599152,173.818726 320.325348,173.982910 321.550537,174.441818 
M439.862488,172.209366 
	C439.706390,172.504593 439.790680,172.758636 440.755951,173.508011 
	C451.630157,173.508011 462.504364,173.508011 473.633392,173.508011 
	C473.633392,158.346817 473.696259,143.548096 473.602448,128.750381 
	C473.564880,122.824463 475.835999,118.081223 480.398651,114.510880 
	C484.290192,111.465652 488.894440,111.114433 493.414886,112.600426 
	C498.751923,114.354843 501.085449,118.438896 501.058990,124.019394 
	C501.009308,134.506836 501.046234,144.994690 501.046844,155.482376 
	C501.047211,161.428238 501.046936,167.374100 501.046936,173.926010 
	C512.308594,173.926010 523.078613,173.926010 534.616577,173.740067 
	C535.022949,173.056137 535.780701,172.374008 535.784180,171.687988 
	C535.867676,155.448563 535.869995,139.208740 535.928406,122.249817 
	C540.052673,114.838058 546.443970,110.821869 551.956604,112.178032 
	C557.883057,113.635979 561.817078,120.141647 561.993225,128.788528 
	C562.013550,129.785233 561.996216,130.782684 561.996216,131.779800 
	C561.996277,144.409912 561.987793,157.040054 562.007996,169.670135 
	C562.010315,171.085342 562.174866,172.500290 562.271606,174.033401 
	C573.559753,174.033401 584.355286,174.033401 595.820679,173.638733 
	C596.213501,172.292831 596.942017,170.948456 596.948181,169.600800 
	C597.025574,152.570740 597.030884,135.540039 596.944702,118.510063 
	C596.936890,116.973106 596.167664,115.440002 595.385437,113.430557 
	C595.325928,113.046417 595.266357,112.662277 595.743164,112.001678 
	C595.540222,111.340714 595.337280,110.679756 594.758667,109.326653 
	C594.649963,108.535095 594.708130,107.673004 594.407776,106.962471 
	C589.273254,94.814713 580.706665,87.169052 567.113464,85.818489 
	C555.054749,84.620384 543.764526,85.667625 534.956055,95.302711 
	C533.668640,96.710922 532.433105,98.166512 531.003235,99.794029 
	C526.035950,92.906456 520.052246,88.251709 512.203918,85.964561 
	C499.589783,82.288582 487.994934,84.111526 477.202637,91.565247 
	C475.687256,92.611839 473.894958,93.257500 471.370483,94.518532 
	C471.089691,91.162781 470.892303,88.803871 470.684937,86.325790 
	C460.482330,86.325790 450.437714,86.325790 440.246399,86.325790 
	C440.246399,96.454170 440.264771,106.254333 440.242462,116.054405 
	C440.200012,134.695801 440.134338,153.337143 439.862488,172.209366 
M185.399475,127.501671 
	C183.618988,123.002037 181.838501,118.502411 179.638474,113.494919 
	C178.845032,112.516525 178.051590,111.538139 177.167175,109.740219 
	C177.756149,106.486145 178.345108,103.232071 178.932861,99.194427 
	C180.593353,94.204590 182.807251,89.321350 183.793320,84.201622 
	C185.568924,74.982559 189.156967,71.259262 198.237717,69.897346 
	C201.204376,69.452415 203.995255,67.835457 206.866516,66.754509 
	C206.740341,65.929588 206.614182,65.104660 206.488007,64.279739 
	C201.846832,63.759926 197.180145,63.396130 192.577164,62.642868 
	C190.757446,62.345074 188.522888,61.642281 187.434402,60.329967 
	C182.965317,54.941925 178.338638,50.209648 170.680344,49.913445 
	C167.077515,49.774105 163.498245,49.025188 159.612030,48.513485 
	C157.090134,41.743038 154.835052,34.662777 151.791458,27.939470 
	C150.207458,24.440451 148.964508,19.371723 142.928528,20.444626 
	C142.625076,20.574553 142.321640,20.704481 141.192657,21.021458 
	C139.789047,20.959108 138.385452,20.896759 136.928528,20.444626 
	C136.625076,20.574554 136.321640,20.704481 135.192657,21.021458 
	C133.789047,20.959108 132.385452,20.896761 130.928528,20.444628 
	C130.625076,20.574554 130.321640,20.704483 129.192657,21.021458 
	C127.789047,20.959108 126.385437,20.896759 124.928528,20.444616 
	C124.625084,20.574547 124.321640,20.704477 123.192657,21.021458 
	C121.789047,20.959108 120.385437,20.896759 118.928528,20.444618 
	C118.625084,20.574549 118.321640,20.704479 117.192657,21.021458 
	C115.789047,20.959108 114.385437,20.896759 112.928528,20.444614 
	C112.625084,20.574545 112.321640,20.704475 111.192657,21.021458 
	C109.789047,20.959108 108.385437,20.896759 106.928528,20.444618 
	C106.625084,20.574549 106.321640,20.704479 105.192657,21.021458 
	C103.789047,20.959108 102.385437,20.896759 100.928528,20.444614 
	C100.625084,20.574545 100.321640,20.704475 99.192657,21.021458 
	C97.789047,20.959108 96.385437,20.896759 94.928528,20.444616 
	C94.625084,20.574547 94.321640,20.704477 93.192657,21.021460 
	C91.789047,20.959110 90.385437,20.896761 88.928528,20.444620 
	C88.625084,20.574551 88.321640,20.704481 87.192657,21.021458 
	C85.789047,20.959108 84.385437,20.896759 82.928528,20.444616 
	C82.625084,20.574547 82.321640,20.704477 81.255096,21.021679 
	C80.175842,21.740990 78.624275,22.215708 78.102318,23.223621 
	C76.235664,26.828136 74.545837,30.547707 73.098129,34.341667 
	C66.522232,51.574802 60.051777,68.848167 52.856823,86.181290 
	C52.243294,86.749313 51.629765,87.317337 50.094189,88.086128 
	C41.394215,88.050453 32.694237,88.014771 23.777981,87.763481 
	C23.501432,87.592316 23.247076,87.651764 22.422123,88.518631 
	C20.109568,95.500137 24.523830,99.961594 28.538832,104.230843 
	C26.431309,110.345863 20.007719,114.347282 21.395332,122.104675 
	C28.110565,122.104675 34.477978,122.104675 41.198154,122.104675 
	C35.254280,139.254715 29.513329,155.819244 23.655107,172.722137 
	C38.996143,172.722137 53.851337,172.722137 69.044373,172.722137 
	C72.588554,162.680542 76.014198,152.668839 79.658157,142.737244 
	C83.242348,132.968506 83.339539,133.004150 93.485184,133.004150 
	C95.980011,133.004135 98.512657,133.279617 100.961349,132.943497 
	C105.293930,132.348785 107.694939,134.245026 108.520721,138.991943 
	C110.311012,143.661530 112.101303,148.331116 114.139122,153.661438 
	C114.413559,154.778397 114.687996,155.895355 114.533661,157.546936 
	C116.342072,162.364731 118.150490,167.182526 120.558685,172.634811 
	C132.661423,172.796494 144.763733,173.032089 156.866989,173.100677 
	C171.236908,173.182098 185.607635,173.119843 200.198685,173.119843 
	C199.974915,171.138443 200.085861,169.570786 199.600388,168.217026 
	C194.786148,154.792480 189.873215,141.403320 185.399475,127.501671 
z"/>
<path fill="#FEFDFD" opacity="1.000000" stroke="none" 
	d="
M177.258148,110.559753 
	C178.051590,111.538139 178.845032,112.516525 179.879364,114.125031 
	C181.742889,119.171478 183.365540,123.587814 184.988205,128.004150 
	C189.873215,141.403320 194.786148,154.792480 199.600388,168.217026 
	C200.085861,169.570786 199.974915,171.138443 200.198685,173.119843 
	C185.607635,173.119843 171.236908,173.182098 156.866989,173.100677 
	C144.763733,173.032089 132.661423,172.796494 120.228851,171.941559 
	C118.253487,166.502960 116.607964,161.757645 114.962433,157.012314 
	C114.687996,155.895355 114.413559,154.778397 114.012222,152.951355 
	C112.213928,147.558899 110.542526,142.876541 108.871132,138.194168 
	C107.694939,134.245026 105.293930,132.348785 100.961349,132.943497 
	C98.512657,133.279617 95.980011,133.004135 93.485184,133.004150 
	C83.339539,133.004150 83.242348,132.968506 79.658157,142.737244 
	C76.014198,152.668839 72.588554,162.680542 69.044373,172.722137 
	C53.851337,172.722137 38.996143,172.722137 23.655107,172.722137 
	C29.513329,155.819244 35.254280,139.254715 41.198154,122.104675 
	C34.477978,122.104675 28.110565,122.104675 21.395332,122.104675 
	C20.007719,114.347282 26.431309,110.345863 28.538832,104.230843 
	C24.523830,99.961594 20.109568,95.500137 22.961918,88.277023 
	C23.501715,88.035423 23.994261,87.979095 23.994261,87.979095 
	C32.694237,88.014771 41.394215,88.050453 50.910141,88.023956 
	C52.331860,87.343536 52.937622,86.725304 53.543388,86.107063 
	C60.051777,68.848167 66.522232,51.574802 73.098129,34.341667 
	C74.545837,30.547707 76.235664,26.828136 78.102318,23.223621 
	C78.624275,22.215708 80.175842,21.740990 81.877556,20.971048 
	C82.500015,20.920418 82.981827,20.834410 82.981827,20.834410 
	C84.385437,20.896759 85.789047,20.959108 87.846336,20.970938 
	C88.500015,20.920418 88.981827,20.834410 88.981827,20.834412 
	C90.385437,20.896761 91.789047,20.959110 93.846336,20.970940 
	C94.500015,20.920418 94.981827,20.834410 94.981827,20.834410 
	C96.385437,20.896759 97.789047,20.959108 99.846336,20.970938 
	C100.500015,20.920418 100.981827,20.834410 100.981827,20.834410 
	C102.385437,20.896759 103.789047,20.959108 105.846336,20.970938 
	C106.500015,20.920418 106.981827,20.834410 106.981827,20.834410 
	C108.385437,20.896759 109.789047,20.959108 111.846336,20.970938 
	C112.500015,20.920418 112.981827,20.834410 112.981827,20.834410 
	C114.385437,20.896759 115.789047,20.959108 117.846336,20.970938 
	C118.500015,20.920418 118.981827,20.834410 118.981827,20.834410 
	C120.385437,20.896759 121.789047,20.959108 123.846336,20.970938 
	C124.500015,20.920418 124.981827,20.834410 124.981827,20.834410 
	C126.385437,20.896759 127.789047,20.959108 129.846344,20.970940 
	C130.500015,20.920420 130.981842,20.834412 130.981842,20.834412 
	C132.385452,20.896761 133.789047,20.959108 135.846344,20.970940 
	C136.500015,20.920420 136.981842,20.834412 136.981842,20.834412 
	C138.385452,20.896759 139.789047,20.959108 141.846344,20.970940 
	C142.500015,20.920420 142.981842,20.834412 142.981842,20.834412 
	C148.964508,19.371723 150.207458,24.440451 151.791458,27.939470 
	C154.835052,34.662777 157.090134,41.743038 159.612030,48.513485 
	C163.498245,49.025188 167.077515,49.774105 170.680344,49.913445 
	C178.338638,50.209648 182.965317,54.941925 187.434402,60.329967 
	C188.522888,61.642281 190.757446,62.345074 192.577164,62.642868 
	C197.180145,63.396130 201.846832,63.759926 206.488007,64.279739 
	C206.614182,65.104660 206.740341,65.929588 206.866516,66.754509 
	C203.995255,67.835457 201.204376,69.452415 198.237717,69.897346 
	C189.156967,71.259262 185.568924,74.982559 183.793320,84.201622 
	C182.807251,89.321350 180.593353,94.204590 178.694504,99.845848 
	C173.568283,114.740532 162.633804,123.675407 150.584381,131.813965 
	C158.249619,133.946396 172.497070,120.346252 177.258148,110.559753 
M116.067711,48.213345 
	C115.137016,46.639053 114.206314,45.064758 113.275620,43.490463 
	C112.793259,43.558487 112.310905,43.626514 111.828552,43.694538 
	C108.067741,55.613979 104.306938,67.533424 100.546127,79.452866 
	C100.888855,79.646927 101.231583,79.840988 101.574310,80.035042 
	C108.049797,76.051712 114.525291,72.068382 121.679314,68.013557 
	C121.892014,67.335464 122.452126,66.535812 122.263947,65.997971 
	C120.269493,60.297588 118.156021,54.638844 116.067711,48.213345 
M65.345291,97.914696 
	C64.892418,97.973083 64.439545,98.031471 63.499985,97.976593 
	C63.499985,97.976593 63.013306,98.089859 62.345287,97.914688 
	C61.892414,97.973076 61.439541,98.031464 60.499985,97.976593 
	C60.499985,97.976593 60.013306,98.089859 59.345287,97.914688 
	C58.892414,97.973076 58.439541,98.031471 57.499985,97.976593 
	C57.499985,97.976593 57.013306,98.089859 56.345287,97.914688 
	C55.892414,97.973083 55.439541,98.031471 54.499985,97.976593 
	C54.499985,97.976593 54.013306,98.089859 53.345287,97.914688 
	C52.892414,97.973076 52.439541,98.031464 51.499985,97.976593 
	C51.499985,97.976593 51.013306,98.089859 50.345287,97.914688 
	C49.892414,97.973076 49.439541,98.031471 48.499985,97.976593 
	C48.499985,97.976593 48.013306,98.089859 47.345287,97.914688 
	C46.892414,97.973083 46.439541,98.031471 45.499985,97.976593 
	C45.499985,97.976593 45.013306,98.089859 44.345287,97.914688 
	C43.892414,97.973076 43.439541,98.031464 42.499985,97.976593 
	C42.499985,97.976593 42.013306,98.089859 41.345287,97.914688 
	C40.892414,97.973076 40.439541,98.031471 39.499985,97.976593 
	C39.499985,97.976593 39.013306,98.089859 38.345356,97.914688 
	C37.892529,97.973083 37.439697,98.031479 36.225990,97.918190 
	C36.452744,99.154625 36.679497,100.391068 37.268253,102.175018 
	C38.393238,103.211960 39.518227,104.248901 40.564960,105.213715 
	C38.823189,107.059227 37.428818,108.536652 35.555710,110.456436 
	C36.032234,110.927307 36.508759,111.398178 37.912918,112.025635 
	C47.597675,112.025635 57.282433,112.025635 66.663704,112.025635 
	C64.906639,116.135986 63.334694,119.813293 61.546791,123.995781 
	C77.898163,123.995781 93.343414,124.124321 108.784264,123.920006 
	C113.621712,123.855995 116.183983,126.073479 117.601227,130.293579 
	C118.125557,131.854874 118.607605,133.430344 119.115440,135.759689 
	C121.089874,141.501419 123.064308,147.243149 125.015266,153.746628 
	C125.981216,156.552261 126.934883,159.362213 127.915565,162.162674 
	C130.213989,168.726151 130.219238,168.724319 138.357361,167.414261 
	C134.649139,156.093964 130.628067,144.943405 127.446999,133.558151 
	C126.161057,128.955688 122.581177,123.923943 127.515083,118.506966 
	C128.394806,117.510292 129.274536,116.513611 130.497131,115.128487 
	C128.874908,115.128487 127.944122,115.128487 126.085442,114.974075 
	C113.873436,114.974075 101.661430,114.974075 88.511299,114.974075 
	C90.684982,112.147858 92.104347,110.138306 93.688805,108.268669 
	C104.718208,95.254143 118.693558,86.044289 133.238419,77.526321 
	C136.142563,75.825554 139.694290,73.906944 141.048660,71.154480 
	C144.020126,65.115669 145.775955,58.478680 148.058182,52.000675 
	C148.326889,52.000675 147.562210,51.901859 146.830856,52.016205 
	C140.610779,52.988712 137.373825,57.441967 136.166473,62.858894 
	C134.477173,70.438248 130.174866,74.650406 123.242981,77.885162 
	C116.252129,81.147408 110.075844,86.145035 103.508438,90.328583 
	C99.367035,92.966728 95.162750,95.506157 90.499985,97.976593 
	C90.499985,97.976593 90.013306,98.089859 89.345291,97.914688 
	C88.892418,97.973076 88.439545,98.031471 87.499985,97.976593 
	C87.499985,97.976593 87.013306,98.089859 86.345291,97.914688 
	C85.892418,97.973083 85.439545,98.031471 84.499985,97.976593 
	C84.499985,97.976593 84.013306,98.089859 83.345291,97.914688 
	C82.892418,97.973076 82.439545,98.031464 81.499985,97.976593 
	C81.499985,97.976593 81.013306,98.089859 80.345291,97.914688 
	C79.892418,97.973076 79.439545,98.031471 78.499985,97.976593 
	C78.499985,97.976593 78.013306,98.089859 77.345291,97.914688 
	C76.892418,97.973083 76.439545,98.031471 75.499985,97.976593 
	C75.499985,97.976593 75.013306,98.089859 74.345291,97.914688 
	C73.892418,97.973076 73.439545,98.031464 72.499985,97.976593 
	C72.499985,97.976593 72.013306,98.089859 71.345291,97.914688 
	C70.892418,97.973076 70.439545,98.031471 69.499985,97.976593 
	C69.499985,97.976593 69.013306,98.089859 68.345291,97.914688 
	C67.892418,97.973076 67.439545,98.031471 66.499985,97.976593 
	C66.499985,97.976593 66.013306,98.089859 65.345291,97.914696 
M158.675812,167.699173 
	C155.198456,157.741364 151.763046,147.768570 148.215637,137.835770 
	C147.274200,135.199783 145.132431,133.718384 142.757050,135.659897 
	C141.595276,136.609467 140.919662,139.395081 141.402008,140.911346 
	C144.295807,150.008499 147.590118,158.978226 150.738419,167.956985 
	C153.255600,167.956985 155.575302,167.956985 158.675812,167.699173 
M166.590591,65.952065 
	C166.590591,63.714043 166.590591,61.476021 166.590591,59.266457 
	C162.317474,58.228992 159.659302,59.609596 158.946167,63.973801 
	C158.257965,68.185532 160.641113,71.653831 164.650848,72.391838 
	C169.222961,73.233353 171.289276,71.610435 173.084259,65.311081 
	C171.014740,65.631851 169.195984,65.913757 166.590591,65.952065 
z"/>
<path fill="#FEFDFD" opacity="1.000000" stroke="none" 
	d="
M595.206787,112.278137 
	C595.266357,112.662277 595.325928,113.046417 595.458008,114.069550 
	C595.514038,117.535210 595.499146,120.361877 595.480896,123.188530 
	C595.371277,140.136826 595.260925,157.085114 595.150879,174.033401 
	C584.355286,174.033401 573.559753,174.033401 562.271606,174.033401 
	C562.174866,172.500290 562.010315,171.085342 562.007996,169.670135 
	C561.987793,157.040054 561.996277,144.409912 561.996216,131.779800 
	C561.996216,130.782684 562.013550,129.785233 561.993225,128.788528 
	C561.817078,120.141647 557.883057,113.635979 551.956604,112.178032 
	C546.443970,110.821869 540.052673,114.838058 535.641602,122.881760 
	C535.010681,129.428009 534.508118,135.338272 534.356812,141.257538 
	C534.078369,152.144241 534.006592,163.036224 533.848694,173.926010 
	C523.078613,173.926010 512.308594,173.926010 501.046936,173.926010 
	C501.046936,167.374100 501.047211,161.428238 501.046844,155.482376 
	C501.046234,144.994690 501.009308,134.506836 501.058990,124.019394 
	C501.085449,118.438896 498.751923,114.354843 493.414886,112.600426 
	C488.894440,111.114433 484.290192,111.465652 480.398651,114.510880 
	C475.835999,118.081223 473.564880,122.824463 473.602448,128.750381 
	C473.696259,143.548096 473.633392,158.346817 473.633392,173.508011 
	C462.504364,173.508011 451.630157,173.508011 440.492554,172.989059 
	C440.178894,172.306259 440.128601,172.142395 440.078308,171.978516 
	C440.134338,153.337143 440.200012,134.695801 440.242462,116.054405 
	C440.264771,106.254333 440.246399,96.454170 440.246399,86.325790 
	C450.437714,86.325790 460.482330,86.325790 470.684937,86.325790 
	C470.892303,88.803871 471.089691,91.162781 471.370483,94.518532 
	C473.894958,93.257500 475.687256,92.611839 477.202637,91.565247 
	C487.994934,84.111526 499.589783,82.288582 512.203918,85.964561 
	C520.052246,88.251709 526.035950,92.906456 531.003235,99.794029 
	C532.433105,98.166512 533.668640,96.710922 534.956055,95.302711 
	C543.764526,85.667625 555.054749,84.620384 567.113464,85.818489 
	C580.706665,87.169052 589.273254,94.814713 594.407776,106.962471 
	C594.708130,107.673004 594.649963,108.535095 594.914185,109.955620 
	C595.115479,111.149101 595.161133,111.713615 595.206787,112.278137 
z"/>
<path fill="#FFFEFE" opacity="1.000000" stroke="none" 
	d="
M604.251465,88.051720 
	C605.133728,87.708298 606.014038,87.072319 606.898621,87.066177 
	C617.018616,86.995865 627.139221,87.021439 637.326355,87.021439 
	C637.849548,89.139534 638.327026,91.072449 638.732239,92.712967 
	C644.713806,90.557091 650.163696,88.129974 655.857788,86.629532 
	C671.374939,82.540627 684.630920,87.097664 695.350647,98.627312 
	C704.815369,108.807152 709.462952,120.942673 707.824951,135.862244 
	C707.515015,138.106049 707.328552,139.550339 707.142029,140.994614 
	C707.064575,141.432724 706.987183,141.870850 706.682739,142.910583 
	C704.601624,147.987259 702.747437,152.462326 700.893250,156.937378 
	C700.893250,156.937378 700.968567,156.972122 700.662964,157.068726 
	C699.845581,158.087006 699.333740,159.008682 698.821899,159.930374 
	C698.312805,160.496429 697.803711,161.062469 696.907410,162.034515 
	C695.910034,163.209229 695.299866,163.977951 694.689697,164.746658 
	C694.689697,164.746658 694.792358,164.791382 694.497314,164.858765 
	C693.522339,165.631989 692.842407,166.337845 692.162415,167.043701 
	C687.306824,170.019852 682.800598,174.268784 677.525635,175.716583 
	C665.203979,179.098343 652.844299,178.149612 640.701172,171.571838 
	C639.469299,170.793381 638.814087,170.386490 637.748535,169.724808 
	C637.748535,179.455444 637.748535,188.701859 637.748535,197.948273 
	C636.869324,198.282028 635.989136,198.907990 635.111145,198.904846 
	C625.045471,198.868896 614.980042,198.737289 604.694092,197.837540 
	C604.490051,169.332657 604.528625,141.621399 604.509766,113.910187 
	C604.503845,105.290649 604.341980,96.671204 604.251465,88.051720 
M666.984253,115.407387 
	C665.171265,114.610123 663.406067,113.671501 661.537048,113.040138 
	C653.566040,110.347580 644.154602,113.613808 639.545959,120.259415 
	C633.821899,128.513275 635.672546,138.580566 640.794189,144.744583 
	C648.448730,153.956863 661.913269,154.216354 669.648132,145.829636 
	C678.414429,136.324585 677.530701,123.899162 666.984253,115.407387 
z"/>
<path fill="#FEFDFD" opacity="1.000000" stroke="none" 
	d="
M776.984680,85.619125 
	C787.311340,86.305328 796.939026,89.909271 804.127808,96.870216 
	C809.556152,102.126640 814.076660,109.392792 816.292114,116.597519 
	C818.567139,123.996376 818.765137,132.576477 817.679565,140.332764 
	C816.229431,150.694504 810.998108,159.745163 801.787964,166.608810 
	C800.560669,167.664612 799.786194,168.335159 799.011658,169.005692 
	C799.011658,169.005676 799.000000,168.998779 798.645630,169.068802 
	C791.859253,171.421799 785.427307,173.704773 778.995361,175.987732 
	C767.874512,176.663391 756.822998,176.829163 746.091675,172.976868 
	C728.056702,166.502731 718.484558,153.569382 717.349182,134.655029 
	C716.255249,116.429634 722.345703,101.619629 738.777771,91.849861 
	C743.377258,89.115219 747.839600,86.976486 753.867310,86.748535 
	C755.024719,86.366806 755.513367,86.185730 756.001953,86.004654 
	C756.453003,86.014709 756.904053,86.024765 758.149780,85.987717 
	C764.957886,85.833458 770.971313,85.726295 776.984680,85.619125 
M779.071655,115.291039 
	C776.955566,114.369942 774.901672,113.249153 772.711365,112.566147 
	C766.750244,110.707321 757.338257,113.622208 754.140808,118.000641 
	C748.119141,126.246269 747.212158,134.670334 753.323792,143.209808 
	C757.564941,149.135620 763.596619,151.324432 770.719543,150.494339 
	C777.956177,149.650970 783.091431,144.839767 785.709595,138.999390 
	C789.592407,130.338028 787.047546,122.106827 779.071655,115.291039 
z"/>
<path fill="#FEFDFD" opacity="1.000000" stroke="none" 
	d="
M429.856079,157.050140 
	C429.856110,162.163528 429.856110,167.276901 429.856110,172.696686 
	C420.432281,172.696686 411.203613,172.696686 401.951752,172.696686 
	C401.586365,170.536804 401.207489,168.297287 400.737671,165.520004 
	C396.748566,167.425964 392.889313,168.689972 389.692963,170.908890 
	C381.056458,176.904388 371.656769,175.416840 362.641052,173.408722 
	C352.622894,171.177338 342.393616,156.606995 342.342560,146.421249 
	C342.281219,134.182495 349.023254,124.948875 361.609100,121.083565 
	C366.938507,119.446815 372.625366,118.973839 378.908234,117.957108 
	C380.106598,117.898033 380.546478,117.853752 380.986359,117.809479 
	C385.871613,117.838600 390.756836,117.867729 396.205994,117.809525 
	C400.077972,117.458427 398.645660,115.578094 398.045563,113.981567 
	C395.516418,111.640724 393.342590,108.584373 390.381287,107.113663 
	C384.862366,104.372757 378.775818,104.671700 372.029419,106.262344 
	C366.494751,107.963882 361.735107,109.449379 356.975494,110.934868 
	C356.144745,111.097916 355.313965,111.260963 354.031647,110.839943 
	C353.386566,108.170815 353.193054,106.085754 352.999512,104.000702 
	C353.033264,100.305840 353.067017,96.610977 353.209167,92.226608 
	C353.589844,91.053230 353.862061,90.569366 354.134277,90.085495 
	C354.134277,90.085495 354.055389,90.055565 354.402893,89.968063 
	C357.506317,88.602272 360.262207,87.323990 363.018127,86.045715 
	C374.632416,83.134369 386.429260,82.811935 398.194733,84.395218 
	C409.605469,85.930771 418.834045,91.838478 425.770721,100.904449 
	C427.381744,103.009972 427.303986,106.407623 428.040710,109.994736 
	C428.124603,112.319038 428.171112,113.859329 428.217621,115.399620 
	C428.279907,115.754616 428.342163,116.109604 428.469604,117.113586 
	C428.641937,119.525253 428.749054,121.287933 428.856171,123.050613 
	C428.914001,129.733551 428.971863,136.416473 429.054016,143.954132 
	C429.121155,145.864227 429.164001,146.919571 429.206848,147.974930 
	C429.246307,149.088287 429.285736,150.201630 429.428680,152.029480 
	C429.640167,154.179367 429.748138,155.614761 429.856079,157.050140 
M394.197723,135.928055 
	C388.213074,134.956039 382.642334,136.177414 377.279388,138.900055 
	C373.600830,140.767563 372.300690,144.048309 373.203278,147.518982 
	C373.807648,149.842911 375.850281,152.682343 377.965302,153.554092 
	C383.888580,155.995483 393.879608,151.914108 397.185760,146.440582 
	C400.182037,141.480072 399.418945,137.715790 394.197723,135.928055 
z"/>
<path fill="#FEFDFD" opacity="1.000000" stroke="none" 
	d="
M320.990662,173.973465 
	C320.325348,173.982910 319.599152,173.818726 319.003754,174.027512 
	C307.852020,177.938522 297.248962,173.569443 287.518219,169.932083 
	C276.092194,165.661072 266.937866,156.898468 263.132324,144.567612 
	C254.570984,116.826759 267.771667,97.499596 286.448517,88.363899 
	C299.554413,81.953232 312.331268,82.758530 325.550262,86.622353 
	C329.012848,87.634453 332.430420,88.800781 336.006409,89.940163 
	C335.063812,97.917435 334.173279,105.454269 333.216522,113.551529 
	C328.518677,112.109764 324.401611,110.501640 320.134766,109.612175 
	C312.467712,108.013924 304.747650,110.398140 299.596039,115.076981 
	C291.489746,122.439339 290.976105,138.785110 303.026855,145.638779 
	C308.257690,148.613739 313.680023,150.924698 319.763977,149.918808 
	C323.525543,149.296906 327.205963,147.962082 330.799316,146.617386 
	C333.514679,145.601242 335.045776,146.157150 335.150085,149.067093 
	C335.393311,155.852844 335.464417,162.644775 334.922485,169.769363 
	C329.823364,171.394165 325.407013,172.683823 320.990662,173.973465 
z"/>
<path fill="#FEFCFC" opacity="1.000000" stroke="none" 
	d="
M254.028198,45.891830 
	C254.028198,88.140167 254.028198,130.388504 254.028198,173.223648 
	C243.234497,173.223648 232.926971,173.223648 221.994507,172.691162 
	C221.369598,130.077805 221.369598,87.996956 221.369598,45.891830 
	C232.627914,45.891830 243.328064,45.891830 254.028198,45.891830 
z"/>
<path fill="#C9141B" opacity="1.000000" stroke="none" 
	d="
M253.854462,45.541271 
	C243.328064,45.891830 232.627914,45.891830 221.369598,45.891830 
	C221.369598,87.996956 221.369598,130.077805 221.502411,172.616211 
	C221.085983,171.460876 220.060806,169.849060 220.057159,168.234955 
	C219.968170,128.769394 220.030670,89.303467 219.925446,49.837986 
	C219.914185,45.614403 221.175659,43.777992 225.633102,43.919201 
	C233.451782,44.166897 241.284943,43.924538 249.109726,44.041897 
	C250.638779,44.064835 252.157333,44.789635 253.854462,45.541271 
z"/>
<path fill="#C70911" opacity="1.000000" stroke="none" 
	d="
M603.969238,88.274094 
	C604.341980,96.671204 604.503845,105.290649 604.509766,113.910187 
	C604.528625,141.621399 604.490051,169.332657 604.362549,197.496979 
	C603.834290,196.436569 603.056213,194.923828 603.053101,193.409485 
	C602.983826,159.711136 602.992676,126.012611 603.029175,92.314171 
	C603.030518,91.041367 603.458008,89.769028 603.969238,88.274094 
z"/>
<path fill="#CB1F26" opacity="1.000000" stroke="none" 
	d="
M177.212662,110.149986 
	C172.497070,120.346252 158.249619,133.946396 150.584381,131.813965 
	C162.633804,123.675407 173.568283,114.740532 178.695099,100.237633 
	C178.345108,103.232071 177.756149,106.486145 177.212662,110.149986 
z"/>
<path fill="#C70911" opacity="1.000000" stroke="none" 
	d="
M595.485779,173.836060 
	C595.260925,157.085114 595.371277,140.136826 595.480896,123.188530 
	C595.499146,120.361877 595.514038,117.535210 595.641296,114.306831 
	C596.167664,115.440002 596.936890,116.973106 596.944702,118.510063 
	C597.030884,135.540039 597.025574,152.570740 596.948181,169.600800 
	C596.942017,170.948456 596.213501,172.292831 595.485779,173.836060 
z"/>
<path fill="#D0393F" opacity="1.000000" stroke="none" 
	d="
M534.232666,173.833038 
	C534.006592,163.036224 534.078369,152.144241 534.356812,141.257538 
	C534.508118,135.338272 535.010681,129.428009 535.620972,123.241333 
	C535.869995,139.208740 535.867676,155.448563 535.784180,171.687988 
	C535.780701,172.374008 535.022949,173.056137 534.232666,173.833038 
z"/>
<path fill="#C70911" opacity="1.000000" stroke="none" 
	d="
M638.030701,197.725845 
	C637.748535,188.701859 637.748535,179.455444 637.748535,169.724808 
	C638.814087,170.386490 639.469299,170.793381 640.365295,171.516083 
	C640.070801,173.805725 639.186096,175.758316 639.064575,177.757309 
	C638.664856,184.330276 638.542053,190.920074 638.030701,197.725845 
z"/>
<path fill="#CA171E" opacity="1.000000" stroke="none" 
	d="
M776.801392,85.290039 
	C770.971313,85.726295 764.957886,85.833458 758.476807,85.895287 
	C758.548767,85.284668 759.101318,84.217697 759.626221,84.231171 
	C765.292725,84.376579 770.954834,84.692001 776.801392,85.290039 
z"/>
<path fill="#CA1B23" opacity="1.000000" stroke="none" 
	d="
M779.272095,176.226715 
	C785.427307,173.704773 791.859253,171.421799 798.647644,169.073944 
	C793.776001,174.774338 786.852966,176.117081 779.272095,176.226715 
z"/>
<path fill="#CB1F26" opacity="1.000000" stroke="none" 
	d="
M357.226257,111.147598 
	C361.735107,109.449379 366.494751,107.963882 371.626404,106.418701 
	C367.157959,108.026115 362.317474,109.693230 357.226257,111.147598 
z"/>
<path fill="#CA1B23" opacity="1.000000" stroke="none" 
	d="
M701.237427,156.874023 
	C702.747437,152.462326 704.601624,147.987259 706.697266,143.245514 
	C707.504517,148.500198 705.244934,152.927261 701.237427,156.874023 
z"/>
<path fill="#CC242B" opacity="1.000000" stroke="none" 
	d="
M114.748047,157.279633 
	C116.607964,161.757645 118.253487,166.502960 119.928955,171.624298 
	C118.150490,167.182526 116.342072,162.364731 114.748047,157.279633 
z"/>
<path fill="#CA1B23" opacity="1.000000" stroke="none" 
	d="
M185.193848,127.752914 
	C183.365540,123.587814 181.742889,119.171478 180.089142,114.378960 
	C181.838501,118.502411 183.618988,123.002037 185.193848,127.752914 
z"/>
<path fill="#CC242B" opacity="1.000000" stroke="none" 
	d="
M108.695923,138.593048 
	C110.542526,142.876541 112.213928,147.558899 113.888458,152.620987 
	C112.101303,148.331116 110.311012,143.661530 108.695923,138.593048 
z"/>
<path fill="#CC242B" opacity="1.000000" stroke="none" 
	d="
M321.270599,174.207642 
	C325.407013,172.683823 329.823364,171.394165 334.620056,170.073029 
	C330.517120,171.508286 326.033844,172.975052 321.270599,174.207642 
z"/>
<path fill="#C9141B" opacity="1.000000" stroke="none" 
	d="
M362.776520,85.833427 
	C360.262207,87.323990 357.506317,88.602272 354.417267,90.007721 
	C356.901062,88.630302 359.717987,87.125725 362.776520,85.833427 
z"/>
<path fill="#C9141B" opacity="1.000000" stroke="none" 
	d="
M352.759399,104.284607 
	C353.193054,106.085754 353.386566,108.170815 353.644196,110.658539 
	C353.311981,108.896973 352.915649,106.732742 352.759399,104.284607 
z"/>
<path fill="#CA1B23" opacity="1.000000" stroke="none" 
	d="
M707.463196,140.884247 
	C707.328552,139.550339 707.515015,138.106049 707.843872,136.328552 
	C707.918945,137.588196 707.851624,139.181046 707.463196,140.884247 
z"/>
<path fill="#C9141B" opacity="1.000000" stroke="none" 
	d="
M397.822937,114.175491 
	C398.645660,115.578094 400.077972,117.458427 396.430328,117.648438 
	C396.593903,116.506256 397.097076,115.437836 397.822937,114.175491 
z"/>
<path fill="#C70911" opacity="1.000000" stroke="none" 
	d="
M429.506775,147.873352 
	C429.164001,146.919571 429.121155,145.864227 429.142578,144.417023 
	C429.406799,145.274033 429.606750,146.522888 429.506775,147.873352 
z"/>
<path fill="#C70911" opacity="1.000000" stroke="none" 
	d="
M430.095337,156.820312 
	C429.748138,155.614761 429.640167,154.179367 429.641998,152.397247 
	C429.946075,153.563828 430.140350,155.077148 430.095337,156.820312 
z"/>
<path fill="#C70911" opacity="1.000000" stroke="none" 
	d="
M428.549530,115.166702 
	C428.171112,113.859329 428.124603,112.319038 428.142456,110.401962 
	C428.431732,111.661369 428.656586,113.297577 428.549530,115.166702 
z"/>
<path fill="#C70911" opacity="1.000000" stroke="none" 
	d="
M429.117096,122.776367 
	C428.749054,121.287933 428.641937,119.525253 428.643616,117.330521 
	C428.960999,118.766350 429.169525,120.634232 429.117096,122.776367 
z"/>
<path fill="#CA1B23" opacity="1.000000" stroke="none" 
	d="
M799.362854,168.978134 
	C799.786194,168.335159 800.560669,167.664612 801.628174,166.896866 
	C801.185486,167.516632 800.449768,168.233597 799.362854,168.978134 
z"/>
<path fill="#CA1B23" opacity="1.000000" stroke="none" 
	d="
M692.505737,167.004913 
	C692.842407,166.337845 693.522339,165.631989 694.474854,164.807465 
	C694.114563,165.447906 693.481812,166.207031 692.505737,167.004913 
z"/>
<path fill="#CA1B23" opacity="1.000000" stroke="none" 
	d="
M695.030396,164.743378 
	C695.299866,163.977951 695.910034,163.209229 696.782410,162.301056 
	C696.486755,163.021088 695.928955,163.880600 695.030396,164.743378 
z"/>
<path fill="#CA1B23" opacity="1.000000" stroke="none" 
	d="
M699.167786,159.864777 
	C699.333740,159.008682 699.845581,158.087006 700.645752,157.030991 
	C700.460693,157.864166 699.987183,158.831696 699.167786,159.864777 
z"/>
<path fill="#C9141B" opacity="1.000000" stroke="none" 
	d="
M380.924225,117.560196 
	C380.546478,117.853752 380.106598,117.898033 379.340149,117.875893 
	C379.629761,117.643295 380.245941,117.477104 380.924225,117.560196 
z"/>
<path fill="#C9141B" opacity="1.000000" stroke="none" 
	d="
M353.858398,90.111267 
	C353.862061,90.569366 353.589844,91.053230 353.158569,91.768265 
	C353.193848,91.378624 353.388184,90.757828 353.858398,90.111267 
z"/>
<path fill="#C70911" opacity="1.000000" stroke="none" 
	d="
M53.200104,86.144180 
	C52.937622,86.725304 52.331860,87.343536 51.371166,87.923569 
	C51.629765,87.317337 52.243294,86.749313 53.200104,86.144180 
z"/>
<path fill="#CA171E" opacity="1.000000" stroke="none" 
	d="
M755.838623,85.825516 
	C755.513367,86.185730 755.024719,86.366806 754.275391,86.583656 
	C754.568237,86.295074 755.121826,85.970726 755.838623,85.825516 
z"/>
<path fill="#C70911" opacity="1.000000" stroke="none" 
	d="
M595.474976,112.139908 
	C595.161133,111.713615 595.115479,111.149101 595.102051,110.301689 
	C595.337280,110.679756 595.540222,111.340714 595.474976,112.139908 
z"/>
<path fill="#C80D14" opacity="1.000000" stroke="none" 
	d="
M82.955177,20.639513 
	C82.981827,20.834410 82.500015,20.920418 82.259109,20.877413 
	C82.321640,20.704477 82.625084,20.574547 82.955177,20.639513 
z"/>
<path fill="#C80D14" opacity="1.000000" stroke="none" 
	d="
M88.955177,20.639515 
	C88.981827,20.834410 88.500015,20.920418 88.259109,20.877415 
	C88.321640,20.704481 88.625084,20.574551 88.955177,20.639515 
z"/>
<path fill="#C80D14" opacity="1.000000" stroke="none" 
	d="
M94.955177,20.639513 
	C94.981827,20.834410 94.500015,20.920418 94.259109,20.877413 
	C94.321640,20.704477 94.625084,20.574547 94.955177,20.639513 
z"/>
<path fill="#C80D14" opacity="1.000000" stroke="none" 
	d="
M100.955177,20.639511 
	C100.981827,20.834410 100.500015,20.920418 100.259109,20.877411 
	C100.321640,20.704475 100.625084,20.574545 100.955177,20.639511 
z"/>
<path fill="#C80D14" opacity="1.000000" stroke="none" 
	d="
M106.955177,20.639515 
	C106.981827,20.834410 106.500015,20.920418 106.259109,20.877415 
	C106.321640,20.704479 106.625084,20.574549 106.955177,20.639515 
z"/>
<path fill="#C80D14" opacity="1.000000" stroke="none" 
	d="
M112.955177,20.639511 
	C112.981827,20.834410 112.500015,20.920418 112.259109,20.877411 
	C112.321640,20.704475 112.625084,20.574545 112.955177,20.639511 
z"/>
<path fill="#C80D14" opacity="1.000000" stroke="none" 
	d="
M118.955177,20.639515 
	C118.981827,20.834410 118.500015,20.920418 118.259109,20.877415 
	C118.321640,20.704479 118.625084,20.574549 118.955177,20.639515 
z"/>
<path fill="#C80D14" opacity="1.000000" stroke="none" 
	d="
M124.955177,20.639513 
	C124.981827,20.834410 124.500015,20.920418 124.259109,20.877413 
	C124.321640,20.704477 124.625084,20.574547 124.955177,20.639513 
z"/>
<path fill="#C80D14" opacity="1.000000" stroke="none" 
	d="
M130.955185,20.639519 
	C130.981842,20.834412 130.500015,20.920420 130.259094,20.877415 
	C130.321640,20.704483 130.625076,20.574554 130.955185,20.639519 
z"/>
<path fill="#C80D14" opacity="1.000000" stroke="none" 
	d="
M136.955185,20.639519 
	C136.981842,20.834412 136.500015,20.920420 136.259094,20.877415 
	C136.321640,20.704481 136.625076,20.574554 136.955185,20.639519 
z"/>
<path fill="#C80D14" opacity="1.000000" stroke="none" 
	d="
M142.955185,20.639519 
	C142.981842,20.834412 142.500015,20.920420 142.259094,20.877415 
	C142.321640,20.704481 142.625076,20.574553 142.955185,20.639519 
z"/>
<path fill="#C70911" opacity="1.000000" stroke="none" 
	d="
M23.886120,87.871292 
	C23.994261,87.979095 23.501715,88.035423 23.258312,87.988632 
	C23.247076,87.651764 23.501432,87.592316 23.886120,87.871292 
z"/>
<path fill="#C70911" opacity="1.000000" stroke="none" 
	d="
M439.970398,172.093933 
	C440.128601,172.142395 440.178894,172.306259 440.172241,172.720825 
	C439.790680,172.758636 439.706390,172.504593 439.970398,172.093933 
z"/>
<path fill="#CC2229" opacity="1.000000" stroke="none" 
	d="
M126.986069,118.947357 
	C122.581177,123.923943 126.161057,128.955688 127.446999,133.558151 
	C130.628067,144.943405 134.649139,156.093964 138.357361,167.414261 
	C130.219238,168.724319 130.213989,168.726151 127.915565,162.162674 
	C126.934883,159.362213 125.981216,156.552261 125.242142,153.099060 
	C123.348984,146.634109 121.228958,140.816742 119.108932,134.999359 
	C118.607605,133.430344 118.125557,131.854874 117.601227,130.293579 
	C116.183983,126.073479 113.621712,123.855995 108.784264,123.920006 
	C93.343414,124.124321 77.898163,123.995781 61.546791,123.995781 
	C63.334694,119.813293 64.906639,116.135986 66.663704,112.025635 
	C57.282433,112.025635 47.597675,112.025635 37.419212,111.676758 
	C36.628490,110.889938 36.331467,110.452003 36.034447,110.014069 
	C37.428818,108.536652 38.823189,107.059227 40.564960,105.213715 
	C39.518227,104.248901 38.393238,103.211960 37.097893,101.458443 
	C36.947311,99.857864 36.967091,98.973869 36.986870,98.089867 
	C37.439697,98.031479 37.892529,97.973083 38.696648,98.207527 
	C39.200172,98.700684 39.352402,98.900993 39.504631,99.101311 
	C39.665314,98.764160 39.825993,98.427010 39.986671,98.089859 
	C40.439541,98.031471 40.892414,97.973076 41.696617,98.207527 
	C42.200172,98.700684 42.352402,98.900993 42.504631,99.101311 
	C42.665314,98.764160 42.825993,98.427010 42.986671,98.089859 
	C43.439541,98.031464 43.892414,97.973076 44.696617,98.207527 
	C45.200172,98.700676 45.352402,98.900993 45.504631,99.101311 
	C45.665310,98.764160 45.825989,98.427010 45.986668,98.089859 
	C46.439541,98.031471 46.892414,97.973083 47.696617,98.207527 
	C48.200172,98.700684 48.352402,98.900993 48.504631,99.101311 
	C48.665306,98.764160 48.825985,98.427010 48.986664,98.089859 
	C49.439541,98.031471 49.892414,97.973076 50.696617,98.207527 
	C51.200176,98.700676 51.352406,98.900993 51.504631,99.101311 
	C51.665306,98.764160 51.825985,98.427010 51.986664,98.089859 
	C52.439541,98.031464 52.892414,97.973076 53.696617,98.207527 
	C54.200172,98.700684 54.352402,98.900993 54.504631,99.101311 
	C54.665310,98.764160 54.825989,98.427010 54.986668,98.089859 
	C55.439541,98.031471 55.892414,97.973083 56.696617,98.207527 
	C57.200176,98.700676 57.352406,98.900993 57.504635,99.101311 
	C57.665314,98.764160 57.825993,98.427010 57.986671,98.089859 
	C58.439541,98.031471 58.892414,97.973076 59.696617,98.207527 
	C60.200172,98.700684 60.352402,98.900993 60.504631,99.101311 
	C60.665314,98.764160 60.825993,98.427010 60.986671,98.089859 
	C61.439541,98.031464 61.892414,97.973076 62.696617,98.207520 
	C63.200172,98.700676 63.352402,98.900986 63.504631,99.101303 
	C63.665306,98.764153 63.825985,98.427002 63.986664,98.089859 
	C64.439545,98.031471 64.892418,97.973083 65.696609,98.207527 
	C66.200165,98.700668 66.352394,98.900986 66.504623,99.101295 
	C66.665298,98.764145 66.825981,98.427002 66.986664,98.089859 
	C67.439545,98.031471 67.892418,97.973076 68.696609,98.207520 
	C69.200165,98.700668 69.352394,98.900986 69.504623,99.101295 
	C69.665306,98.764153 69.825989,98.427002 69.986671,98.089859 
	C70.439545,98.031471 70.892418,97.973076 71.696609,98.207520 
	C72.200165,98.700668 72.352394,98.900986 72.504623,99.101295 
	C72.665298,98.764145 72.825981,98.427002 72.986664,98.089859 
	C73.439545,98.031464 73.892418,97.973076 74.696609,98.207520 
	C75.200165,98.700668 75.352394,98.900978 75.504623,99.101295 
	C75.665306,98.764153 75.825989,98.427002 75.986671,98.089859 
	C76.439545,98.031471 76.892418,97.973083 77.696609,98.207520 
	C78.200165,98.700668 78.352394,98.900986 78.504623,99.101295 
	C78.665298,98.764145 78.825981,98.427002 78.986664,98.089859 
	C79.439545,98.031471 79.892418,97.973076 80.696609,98.207520 
	C81.200165,98.700668 81.352394,98.900986 81.504623,99.101295 
	C81.665306,98.764153 81.825989,98.427002 81.986671,98.089859 
	C82.439545,98.031464 82.892418,97.973076 83.696609,98.207520 
	C84.200165,98.700668 84.352394,98.900978 84.504623,99.101295 
	C84.665314,98.764153 84.825996,98.427010 84.986679,98.089859 
	C85.439545,98.031471 85.892418,97.973083 86.696609,98.207520 
	C87.200165,98.700676 87.352394,98.900986 87.504623,99.101295 
	C87.665306,98.764153 87.825989,98.427002 87.986671,98.089859 
	C88.439545,98.031471 88.892418,97.973076 89.696609,98.207520 
	C90.200165,98.700668 90.352394,98.900986 90.504623,99.101295 
	C90.665306,98.764153 90.825989,98.427010 90.986679,98.089859 
	C95.162750,95.506157 99.367035,92.966728 103.508438,90.328583 
	C110.075844,86.145035 116.252129,81.147408 123.242981,77.885162 
	C130.174866,74.650406 134.477173,70.438248 136.166473,62.858894 
	C137.373825,57.441967 140.610779,52.988712 146.830856,52.016205 
	C147.562210,51.901859 148.326889,52.000675 148.058182,52.000675 
	C145.775955,58.478680 144.020126,65.115669 141.048660,71.154480 
	C139.694290,73.906944 136.142563,75.825554 133.238419,77.526321 
	C118.693558,86.044289 104.718208,95.254143 93.688805,108.268669 
	C92.104347,110.138306 90.684982,112.147858 88.511299,114.974075 
	C101.661430,114.974075 113.873436,114.974075 126.539124,115.433228 
	C126.990555,116.910698 126.988312,117.929031 126.986069,118.947357 
z"/>
<path fill="#CC232A" opacity="1.000000" stroke="none" 
	d="
M121.000778,68.085052 
	C114.525291,72.068382 108.049797,76.051712 101.574310,80.035042 
	C101.231583,79.840988 100.888855,79.646927 100.546127,79.452866 
	C104.306938,67.533424 108.067741,55.613979 111.828552,43.694538 
	C112.310905,43.626514 112.793259,43.558487 113.275620,43.490463 
	C114.206314,45.064758 115.137016,46.639053 115.860703,48.840416 
	C116.009644,51.182503 116.242615,52.934517 116.745247,54.605415 
	C118.102417,59.117081 119.574371,63.594215 121.000778,68.085052 
z"/>
<path fill="#CC2229" opacity="1.000000" stroke="none" 
	d="
M158.285400,167.828079 
	C155.575302,167.956985 153.255600,167.956985 150.738419,167.956985 
	C147.590118,158.978226 144.295807,150.008499 141.402008,140.911346 
	C140.919662,139.395081 141.595276,136.609467 142.757050,135.659897 
	C145.132431,133.718384 147.274200,135.199783 148.215637,137.835770 
	C151.763046,147.768570 155.198456,157.741364 158.285400,167.828079 
z"/>
<path fill="#CC242B" opacity="1.000000" stroke="none" 
	d="
M166.983917,66.073868 
	C169.195984,65.913757 171.014740,65.631851 173.084259,65.311081 
	C171.289276,71.610435 169.222961,73.233353 164.650848,72.391838 
	C160.641113,71.653831 158.257965,68.185532 158.946167,63.973801 
	C159.659302,59.609596 162.317474,58.228992 166.590591,59.266457 
	C166.590591,61.476021 166.590591,63.714043 166.983917,66.073868 
z"/>
<path fill="#CC242B" opacity="1.000000" stroke="none" 
	d="
M121.340042,68.049301 
	C119.574371,63.594215 118.102417,59.117081 116.745247,54.605415 
	C116.242615,52.934517 116.009644,51.182503 115.864510,49.218060 
	C118.156021,54.638844 120.269493,60.297588 122.263947,65.997971 
	C122.452126,66.535812 121.892014,67.335464 121.340042,68.049301 
z"/>
<path fill="#CC232A" opacity="1.000000" stroke="none" 
	d="
M119.112183,135.379517 
	C121.228958,140.816742 123.348984,146.634109 125.253876,152.718185 
	C123.064308,147.243149 121.089874,141.501419 119.112183,135.379517 
z"/>
<path fill="#C80E16" opacity="1.000000" stroke="none" 
	d="
M127.250580,118.727158 
	C126.988312,117.929031 126.990555,116.910698 127.003075,115.510429 
	C127.944122,115.128487 128.874908,115.128487 130.497131,115.128487 
	C129.274536,116.513611 128.394806,117.510292 127.250580,118.727158 
z"/>
<path fill="#C70911" opacity="1.000000" stroke="none" 
	d="
M36.606430,98.004028 
	C36.967091,98.973869 36.947311,99.857864 36.916893,101.184685 
	C36.679497,100.391068 36.452744,99.154625 36.606430,98.004028 
z"/>
<path fill="#C80D14" opacity="1.000000" stroke="none" 
	d="
M35.795078,110.235252 
	C36.331467,110.452003 36.628490,110.889938 36.955399,111.598457 
	C36.508759,111.398178 36.032234,110.927307 35.795078,110.235252 
z"/>
<path fill="#C70911" opacity="1.000000" stroke="none" 
	d="
M72.743324,98.033226 
	C72.825981,98.427002 72.665298,98.764145 72.504623,99.101295 
	C72.352394,98.900986 72.200165,98.700668 72.030624,98.295105 
	C72.013306,98.089859 72.499985,97.976593 72.743324,98.033226 
z"/>
<path fill="#C70911" opacity="1.000000" stroke="none" 
	d="
M87.743332,98.033226 
	C87.825989,98.427002 87.665306,98.764153 87.504623,99.101295 
	C87.352394,98.900986 87.200165,98.700676 87.030624,98.295105 
	C87.013306,98.089859 87.499985,97.976593 87.743332,98.033226 
z"/>
<path fill="#C70911" opacity="1.000000" stroke="none" 
	d="
M39.743328,98.033226 
	C39.825993,98.427010 39.665314,98.764160 39.504631,99.101311 
	C39.352402,98.900993 39.200172,98.700684 39.030624,98.295113 
	C39.013306,98.089859 39.499985,97.976593 39.743328,98.033226 
z"/>
<path fill="#C70911" opacity="1.000000" stroke="none" 
	d="
M42.743328,98.033226 
	C42.825993,98.427010 42.665314,98.764160 42.504631,99.101311 
	C42.352402,98.900993 42.200172,98.700684 42.030624,98.295113 
	C42.013306,98.089859 42.499985,97.976593 42.743328,98.033226 
z"/>
<path fill="#C70911" opacity="1.000000" stroke="none" 
	d="
M45.743324,98.033226 
	C45.825989,98.427010 45.665310,98.764160 45.504631,99.101311 
	C45.352402,98.900993 45.200172,98.700676 45.030624,98.295113 
	C45.013306,98.089859 45.499985,97.976593 45.743324,98.033226 
z"/>
<path fill="#C70911" opacity="1.000000" stroke="none" 
	d="
M48.743324,98.033226 
	C48.825985,98.427010 48.665306,98.764160 48.504631,99.101311 
	C48.352402,98.900993 48.200172,98.700684 48.030624,98.295113 
	C48.013306,98.089859 48.499985,97.976593 48.743324,98.033226 
z"/>
<path fill="#C70911" opacity="1.000000" stroke="none" 
	d="
M51.743324,98.033226 
	C51.825985,98.427010 51.665306,98.764160 51.504631,99.101311 
	C51.352406,98.900993 51.200176,98.700676 51.030624,98.295113 
	C51.013306,98.089859 51.499985,97.976593 51.743324,98.033226 
z"/>
<path fill="#C70911" opacity="1.000000" stroke="none" 
	d="
M54.743324,98.033226 
	C54.825989,98.427010 54.665310,98.764160 54.504631,99.101311 
	C54.352402,98.900993 54.200172,98.700684 54.030624,98.295113 
	C54.013306,98.089859 54.499985,97.976593 54.743324,98.033226 
z"/>
<path fill="#C70911" opacity="1.000000" stroke="none" 
	d="
M57.743328,98.033226 
	C57.825993,98.427010 57.665314,98.764160 57.504635,99.101311 
	C57.352406,98.900993 57.200176,98.700676 57.030624,98.295113 
	C57.013306,98.089859 57.499985,97.976593 57.743328,98.033226 
z"/>
<path fill="#C70911" opacity="1.000000" stroke="none" 
	d="
M60.743328,98.033226 
	C60.825993,98.427010 60.665314,98.764160 60.504631,99.101311 
	C60.352402,98.900993 60.200172,98.700684 60.030624,98.295113 
	C60.013306,98.089859 60.499985,97.976593 60.743328,98.033226 
z"/>
<path fill="#C70911" opacity="1.000000" stroke="none" 
	d="
M63.743324,98.033226 
	C63.825985,98.427002 63.665306,98.764153 63.504631,99.101303 
	C63.352402,98.900986 63.200172,98.700676 63.030624,98.295105 
	C63.013306,98.089859 63.499985,97.976593 63.743324,98.033226 
z"/>
<path fill="#C70911" opacity="1.000000" stroke="none" 
	d="
M66.743324,98.033226 
	C66.825981,98.427002 66.665298,98.764145 66.504623,99.101295 
	C66.352394,98.900986 66.200165,98.700668 66.030624,98.295105 
	C66.013306,98.089859 66.499985,97.976593 66.743324,98.033226 
z"/>
<path fill="#C70911" opacity="1.000000" stroke="none" 
	d="
M69.743332,98.033226 
	C69.825989,98.427002 69.665306,98.764153 69.504623,99.101295 
	C69.352394,98.900986 69.200165,98.700668 69.030624,98.295105 
	C69.013306,98.089859 69.499985,97.976593 69.743332,98.033226 
z"/>
<path fill="#C70911" opacity="1.000000" stroke="none" 
	d="
M75.743332,98.033226 
	C75.825989,98.427002 75.665306,98.764153 75.504623,99.101295 
	C75.352394,98.900978 75.200165,98.700668 75.030624,98.295105 
	C75.013306,98.089859 75.499985,97.976593 75.743332,98.033226 
z"/>
<path fill="#C70911" opacity="1.000000" stroke="none" 
	d="
M78.743324,98.033226 
	C78.825981,98.427002 78.665298,98.764145 78.504623,99.101295 
	C78.352394,98.900986 78.200165,98.700668 78.030624,98.295105 
	C78.013306,98.089859 78.499985,97.976593 78.743324,98.033226 
z"/>
<path fill="#C70911" opacity="1.000000" stroke="none" 
	d="
M81.743332,98.033226 
	C81.825989,98.427002 81.665306,98.764153 81.504623,99.101295 
	C81.352394,98.900986 81.200165,98.700668 81.030624,98.295105 
	C81.013306,98.089859 81.499985,97.976593 81.743332,98.033226 
z"/>
<path fill="#C70911" opacity="1.000000" stroke="none" 
	d="
M84.743332,98.033226 
	C84.825996,98.427010 84.665314,98.764153 84.504623,99.101295 
	C84.352394,98.900978 84.200165,98.700668 84.030624,98.295105 
	C84.013306,98.089859 84.499985,97.976593 84.743332,98.033226 
z"/>
<path fill="#C70911" opacity="1.000000" stroke="none" 
	d="
M90.743332,98.033226 
	C90.825989,98.427010 90.665306,98.764153 90.504623,99.101295 
	C90.352394,98.900986 90.200165,98.700668 90.030624,98.295105 
	C90.013306,98.089859 90.499985,97.976593 90.743332,98.033226 
z"/>
<path fill="#CC2229" opacity="1.000000" stroke="none" 
	d="
M667.252136,115.658516 
	C677.530701,123.899162 678.414429,136.324585 669.648132,145.829636 
	C661.913269,154.216354 648.448730,153.956863 640.794189,144.744583 
	C635.672546,138.580566 633.821899,128.513275 639.545959,120.259415 
	C644.154602,113.613808 653.566040,110.347580 661.537048,113.040138 
	C663.406067,113.671501 665.171265,114.610123 667.252136,115.658516 
z"/>
<path fill="#CC232A" opacity="1.000000" stroke="none" 
	d="
M779.369873,115.513474 
	C787.047546,122.106827 789.592407,130.338028 785.709595,138.999390 
	C783.091431,144.839767 777.956177,149.650970 770.719543,150.494339 
	C763.596619,151.324432 757.564941,149.135620 753.323792,143.209808 
	C747.212158,134.670334 748.119141,126.246269 754.140808,118.000641 
	C757.338257,113.622208 766.750244,110.707321 772.711365,112.566147 
	C774.901672,113.249153 776.955566,114.369942 779.369873,115.513474 
z"/>
<path fill="#CC242B" opacity="1.000000" stroke="none" 
	d="
M394.630859,135.951080 
	C399.418945,137.715790 400.182037,141.480072 397.185760,146.440582 
	C393.879608,151.914108 383.888580,155.995483 377.965302,153.554092 
	C375.850281,152.682343 373.807648,149.842911 373.203278,147.518982 
	C372.300690,144.048309 373.600830,140.767563 377.279388,138.900055 
	C382.642334,136.177414 388.213074,134.956039 394.630859,135.951080 
z"/>
</svg>